<svg id="grid" xmlns="http://www.w3.org/2000/svg" viewBox="0 0 1755.38 455.38">
  <defs>
    <style>
      .cls-1, .cls-2 {
        fill: none;
        stroke-miterlimit: 10;
      }

      .cls-1 {
        stroke: #0071bc;
      }

      .cls-2 {
        stroke: #c1272d;
      }
    </style>
  </defs>
  <g id="vertical">
    <line class="cls-1" x1="1121.23" y1="0.5" x2="1755.09" y2="447.73"/>
    <line class="cls-1" x1="1098.56" y1="0.51" x2="1679.11" y2="447.85"/>
    <line class="cls-1" x1="1075.88" y1="0.52" x2="1603.1" y2="447.97"/>
    <line class="cls-1" x1="1053.2" y1="0.53" x2="1527.07" y2="448.09"/>
    <line class="cls-1" x1="1030.52" y1="0.54" x2="1451" y2="448.21"/>
    <line class="cls-1" x1="1007.83" y1="0.55" x2="1374.91" y2="448.33"/>
    <line class="cls-1" x1="985.15" y1="0.56" x2="1298.78" y2="448.45"/>
    <line class="cls-1" x1="962.46" y1="0.57" x2="1222.63" y2="448.57"/>
    <line class="cls-1" x1="939.77" y1="0.59" x2="1146.45" y2="448.69"/>
    <line class="cls-1" x1="917.07" y1="0.6" x2="1070.24" y2="448.81"/>
    <line class="cls-1" x1="894.37" y1="0.61" x2="994.01" y2="448.93"/>
    <line class="cls-1" x1="871.68" y1="0.62" x2="917.74" y2="449.05"/>
    <line class="cls-1" x1="848.97" y1="0.63" x2="841.45" y2="449.17"/>
    <line class="cls-1" x1="826.27" y1="0.64" x2="765.12" y2="449.29"/>
    <line class="cls-1" x1="803.56" y1="0.65" x2="688.77" y2="449.41"/>
    <line class="cls-1" x1="780.85" y1="0.66" x2="612.39" y2="449.53"/>
    <line class="cls-1" x1="758.14" y1="0.67" x2="535.98" y2="449.65"/>
    <line class="cls-1" x1="735.42" y1="0.68" x2="459.54" y2="449.77"/>
    <line class="cls-1" x1="712.71" y1="0.69" x2="383.07" y2="449.89"/>
    <line class="cls-1" x1="689.99" y1="0.7" x2="306.58" y2="450.01"/>
    <line class="cls-1" x1="667.26" y1="0.71" x2="230.05" y2="450.13"/>
    <line class="cls-1" x1="644.54" y1="0.72" x2="153.5" y2="450.25"/>
    <line class="cls-1" x1="621.81" y1="0.73" x2="76.91" y2="450.37"/>
    <line class="cls-1" x1="599.08" y1="0.75" x2="0.3" y2="450.49"/>
  </g>
  <g id="horizontal">
    <line class="cls-2" x1="603.45" y1="0.5" x2="1115.45" y2="0.5"/>
    <line class="cls-2" x1="603.45" y1="25.74" x2="1115.45" y2="25.74"/>
    <line class="cls-2" x1="603.45" y1="50.99" x2="1115.45" y2="50.99"/>
    <line class="cls-2" x1="603.45" y1="76.23" x2="1115.45" y2="76.23"/>
    <line class="cls-2" x1="603.45" y1="101.47" x2="1115.45" y2="101.47"/>
    <line class="cls-2" x1="603.45" y1="126.72" x2="1115.45" y2="126.72"/>
    <line class="cls-2" x1="603.45" y1="151.96" x2="1115.45" y2="151.96"/>
    <line class="cls-2" x1="603.45" y1="177.2" x2="1115.45" y2="177.2"/>
    <line class="cls-2" x1="603.45" y1="202.45" x2="1115.45" y2="202.45"/>
    <line class="cls-2" x1="603.45" y1="227.69" x2="1115.45" y2="227.69"/>
    <line class="cls-2" x1="603.45" y1="252.93" x2="1115.45" y2="252.93"/>
    <line class="cls-2" x1="603.45" y1="278.18" x2="1115.45" y2="278.18"/>
    <line class="cls-2" x1="603.45" y1="303.42" x2="1115.45" y2="303.42"/>
    <line class="cls-2" x1="603.45" y1="328.66" x2="1115.45" y2="328.66"/>
    <line class="cls-2" x1="603.45" y1="353.91" x2="1115.45" y2="353.91"/>
    <line class="cls-2" x1="603.45" y1="379.15" x2="1115.45" y2="379.15"/>
    <line class="cls-2" x1="603.45" y1="404.39" x2="1115.45" y2="404.39"/>
    <line class="cls-2" x1="603.45" y1="429.64" x2="1115.45" y2="429.64"/>
    <line class="cls-2" x1="603.45" y1="454.88" x2="1115.45" y2="454.88"/>
  </g>
</svg>
