<svg id="grid" xmlns="http://www.w3.org/2000/svg" viewBox="0 0 1758.42 451">
  <defs>
    <style>
      .cls-1 {
        fill: none;
        stroke: #0071bc;
        stroke-miterlimit: 10;
      }
    </style>
  </defs>
  <g id="vertical">
    <line class="cls-1" x1="1124.27" y1="0.5" x2="1758.13" y2="447.73"/>
    <line class="cls-1" x1="1101.59" y1="0.51" x2="1682.15" y2="447.85"/>
    <line class="cls-1" x1="1078.92" y1="0.52" x2="1606.14" y2="447.97"/>
    <line class="cls-1" x1="1056.24" y1="0.53" x2="1530.1" y2="448.09"/>
    <line class="cls-1" x1="1033.56" y1="0.54" x2="1454.04" y2="448.21"/>
    <line class="cls-1" x1="1010.87" y1="0.55" x2="1377.94" y2="448.33"/>
    <line class="cls-1" x1="988.19" y1="0.56" x2="1301.82" y2="448.45"/>
    <line class="cls-1" x1="965.5" y1="0.57" x2="1225.67" y2="448.57"/>
    <line class="cls-1" x1="942.8" y1="0.58" x2="1149.49" y2="448.69"/>
    <line class="cls-1" x1="920.11" y1="0.6" x2="1073.28" y2="448.81"/>
    <line class="cls-1" x1="897.41" y1="0.61" x2="997.04" y2="448.93"/>
    <line class="cls-1" x1="874.71" y1="0.62" x2="920.78" y2="449.05"/>
    <line class="cls-1" x1="852.01" y1="0.63" x2="844.48" y2="449.17"/>
    <line class="cls-1" x1="829.31" y1="0.64" x2="768.16" y2="449.29"/>
    <line class="cls-1" x1="806.6" y1="0.65" x2="691.81" y2="449.41"/>
    <line class="cls-1" x1="783.89" y1="0.66" x2="615.43" y2="449.53"/>
    <line class="cls-1" x1="761.18" y1="0.67" x2="539.02" y2="449.65"/>
    <line class="cls-1" x1="738.46" y1="0.68" x2="462.58" y2="449.77"/>
    <line class="cls-1" x1="715.74" y1="0.69" x2="386.11" y2="449.89"/>
    <line class="cls-1" x1="693.02" y1="0.7" x2="309.61" y2="450.01"/>
    <line class="cls-1" x1="670.3" y1="0.71" x2="233.09" y2="450.13"/>
    <line class="cls-1" x1="647.58" y1="0.72" x2="156.53" y2="450.25"/>
    <line class="cls-1" x1="624.85" y1="0.73" x2="79.95" y2="450.37"/>
    <line class="cls-1" x1="602.12" y1="0.74" x2="3.34" y2="450.49"/>
  </g>
  <g id="horizontal">
    <line class="cls-1" x1="1754.82" y1="447.73" y2="450.5"/>
    <line class="cls-1" x1="1671.24" y1="388.54" x2="79.77" y2="390.82"/>
    <line class="cls-1" x1="1601.87" y1="339.42" x2="145.93" y2="341.32"/>
    <line class="cls-1" x1="1543.37" y1="297.99" x2="201.68" y2="299.61"/>
    <line class="cls-1" x1="1493.37" y1="262.58" x2="249.31" y2="263.97"/>
    <line class="cls-1" x1="1450.14" y1="231.97" x2="290.47" y2="233.18"/>
    <line class="cls-1" x1="1412.4" y1="205.24" x2="326.39" y2="206.3"/>
    <line class="cls-1" x1="1379.16" y1="181.7" x2="358.02" y2="182.64"/>
    <line class="cls-1" x1="1349.66" y1="160.81" x2="386.07" y2="161.65"/>
    <line class="cls-1" x1="1323.31" y1="142.15" x2="411.13" y2="142.9"/>
    <line class="cls-1" x1="1299.62" y1="125.38" x2="433.65" y2="126.05"/>
    <line class="cls-1" x1="1278.22" y1="110.22" x2="453.99" y2="110.83"/>
    <line class="cls-1" x1="1258.78" y1="96.46" x2="472.46" y2="97.01"/>
    <line class="cls-1" x1="1241.05" y1="83.9" x2="489.31" y2="84.41"/>
    <line class="cls-1" x1="1224.81" y1="72.4" x2="504.73" y2="72.87"/>
    <line class="cls-1" x1="1209.89" y1="61.83" x2="518.91" y2="62.26"/>
    <line class="cls-1" x1="1196.12" y1="52.08" x2="531.98" y2="52.48"/>
    <line class="cls-1" x1="1183.38" y1="43.06" x2="544.08" y2="43.43"/>
    <line class="cls-1" x1="1171.56" y1="34.69" x2="555.3" y2="35.03"/>
    <line class="cls-1" x1="1160.56" y1="26.9" x2="565.74" y2="27.22"/>
    <line class="cls-1" x1="1150.3" y1="19.64" x2="575.48" y2="19.93"/>
    <line class="cls-1" x1="1140.71" y1="12.84" x2="584.59" y2="13.12"/>
    <line class="cls-1" x1="1131.72" y1="6.48" x2="593.12" y2="6.74"/>
    <line class="cls-1" x1="1123.28" y1="0.5" x2="601.13" y2="0.75"/>
  </g>
</svg>
