<svg xmlns="http://www.w3.org/2000/svg" viewBox="0 0 558.97 362.98">
  <defs>
    <style>
      .cls-1 {
        fill: #93278f;
      }

      .cls-2 {
        fill: #fe17fb;
      }

      .cls-3 {
        fill: #1b1464;
      }

      .cls-4 {
        fill: #0014b4;
      }
    </style>
  </defs>
  <g id="background">
    <path id="triangle" class="cls-1" d="M71.77,242.72c1.51-1.21,267.61-199.59,269.41-200.93s1.8-1.34,3.37.59c20.11,30.78,231.54,354.9,232.51,357.9,1,3.15-.85,3.91-4.34,3.4S73.64,248.17,72.06,247.28A2.78,2.78,0,0,1,71.77,242.72Z" transform="translate(-70.72 -40.85)"/>
  </g>
  <g id="wave">
    <path id="wave_w" class="cls-2" d="M359.36,299.34s-27.23,66.38-31.49,84.94-.17,21.44,9.87,9.36,31.66-40.17,31.66-40.17c2.28-3.17,2.6-1.51,2.34.72s-3.25,17.24-2.87,22.15,5.56,5.81,9.07,2.62,26.17-45.19,57.19-77.75l-11.6,1.41-40,51.89c-1.57,2.11-4.46,5.26-2.08-3.94s2.21-14.63,2.21-14.63c-.05-1.85-3.79-4.38-3.79-4.38-2.48-.7-4.76,2.46-4.76,2.46l-31.07,37c-1.44,2-3.1.94-2.34-1.7s25.11-64.75,25.11-64.75a4.15,4.15,0,0,0-.53-5.21l-2.38-2C361.15,295.68,359.94,297.93,359.36,299.34Z" transform="translate(-70.72 -40.85)"/>
    <path id="wave_awe" class="cls-2" d="M428.43,329.46s-11.49,11.2-13,13.63S415,346,417,344.94s27.13-28.22,29.23-30.39,4.41.13,4.41.13,2.87,3.19,1.85,6-9.7,12.19-11.68,15-.58,4.28,2.1,2.55c7.22-3.76,26.41-28.8,28.28-31.06s3.58-3,5.36-.6c0,0,3.45,4.34,1.49,6.94,0,0-11.15,19-12.17,20.89s0,2.81,1.26.9c0,0,27.25-31.45,28.87-33s3.83-1.83,5-.17,2.13,2.34,1.36,5.95-3.87,5.45-3.83,7.79.94,3,2.3,1.25c0,0,7-9,13.79-14.53,12-9.44,13.1.81,12.17,2.69C511.15,330.21,501.7,332.87,500,335s-2.36,4.73-3.89,8.11.25,4.53,2.85,3.51c18.89-8,123.53-22,123.53-22s8.56-.94,7,4.33c-89,13.65-132.9,27.2-137.24,30.14s-12-.26-8.54-5.93c0,0,8.66-17.05,6.37-18.07s-4-4.85-4-6.51-1.15-3.06-2.68-1.28l-22.22,21.46s-6.38,2.16-7.91-2.44c0,0,1.15-3.19,1.91-5s-.76-3.88-2-1.07l-18.06,15.19s-7.47,4.34-8.82.69c0,0-.69-5.8-.18-7.84s0-3.06-2-.89c0,0-7.79,4.85-10.22,7.27s-13.66,2.43-11.23-4.72c4.21-10.6,21.45-24.89,21.45-24.89C425.61,323.78,429.38,325.53,428.43,329.46Zm79.1-8.46a64.36,64.36,0,0,0,7.7-9.32c.81-1.45-.76-2.51-2.17-1.34s-8.87,12.06-8.87,12.06A4.12,4.12,0,0,0,507.53,321Z" transform="translate(-70.72 -40.85)"/>
    <path id="wave_line" class="cls-2" d="M385.4,397.6s-2-12.86,82.6-32.9c6.77-1.27,3.8,8.43.41,9.63C462.64,375.93,441.57,376.87,385.4,397.6Z" transform="translate(-70.72 -40.85)"/>
  </g>
  <g id="retro">
    <path id="retro_r" class="cls-3" d="M130.6,343.6l21.19-129.71,75.57-11.61L220,251.43l-16.43,15.4,11.75,11.66-8.43,52.94L176,336.36l7.41-45.87L172,278.74l-9.36,59.49ZM178,239.77,174.6,262l16-15.41,1.1-8.76Z" transform="translate(-70.72 -40.85)"/>
    <polygon id="retro_e" class="cls-3" points="162.52 160.45 238.26 148.27 233.67 179 188.22 186.15 186.18 204.54 216.47 199.94 211.88 231.09 180.73 235.34 178.18 253.9 222.6 247.43 217.54 277.82 142.41 289.7 162.52 160.45"/>
    <polygon id="retro_t" class="cls-3" points="244.22 146.62 319.92 134.88 315.45 166.15 292.73 169.34 277.63 268.32 245.41 273.42 261.58 174.32 238.99 178.15 244.22 146.62"/>
    <path id="retro_r_second" class="cls-3" d="M375.15,304.55l21.19-129.7,75.57-11.62-7.4,49.15-16.42,15.41,11.74,11.66-8.43,52.93-30.8,4.94,7.4-45.87L416.51,239.7l-9.36,59.49Zm47.4-103.83-3.4,22.22,16-15.41,1.11-8.76Z" transform="translate(-70.72 -40.85)"/>
    <path id="retro_o" class="cls-3" d="M457.28,291.43,477.49,162l76.25-12.09-21,129.79Zm46.55-103.56-10.68,68.24,13.79-2.39L517.66,186Z" transform="translate(-70.72 -40.85)"/>
  </g>
  <g id="new">
    <path id="new_n1" class="cls-4" d="M122.55,114.28c0,2.93-15.3,106.55-15.3,106.55s-.79,3.26-3.13,2.75-2.18-3.6-2.18-3.6,14.56-102.89,15.68-106.55S122.55,111.34,122.55,114.28Z" transform="translate(-70.72 -40.85)"/>
    <path id="new_n2" class="cls-4" d="M122.79,104.21c5.19-.75,25.15-3.1,26.87-3.1a6.22,6.22,0,0,1,6,3.59c1.36,3.11,18.51,45.07,18.51,45.07l7.11-48.66a8.32,8.32,0,0,1,6-6.58c5.36-1.53,25.47-4.44,27.62-4s3.35,3.18.61,4.43-27.27,3.36-27.27,3.36-3.19,1.4-3.58,6.38-7.34,52.66-7.34,52.66c-.71,3.1-4.7,3-5.93.19-.93-2.65-19.22-49.17-19.22-49.17s-1.87-3.06-4.25-2.72-18.11,3.23-24.56,3.57S117.6,105,122.79,104.21Z" transform="translate(-70.72 -40.85)"/>
    <path id="new_n3" class="cls-4" d="M213.15,97.34a2.81,2.81,0,0,1,2.55,2.81L200.8,201.31l-6.27,1L210.13,99A2.58,2.58,0,0,1,213.15,97.34Z" transform="translate(-70.72 -40.85)"/>
    <path id="new_n4" class="cls-4" d="M146,163.87l17.52,43.26L158,208,144.27,172.4l-7.77,49.78c-.29,4.44-4.09,5-6.19,5.39s-23.54,4.26-26.87,3.79-4.87-3.82-.56-5.13,26.55-3.78,26.55-3.78c1.79-.79,1.91-1.1,2.16-3s7.21-51.14,8.35-55.87S144,159.13,146,163.87Z" transform="translate(-70.72 -40.85)"/>
    <path id="new_e1" class="cls-4" d="M205.12,200.53l6.24-.85s14.85-97.19,14.77-100.87-4.6-4.6-5.39-.55S205.12,200.53,205.12,200.53Z" transform="translate(-70.72 -40.85)"/>
    <path id="new_e2" class="cls-4" d="M224.49,88.47s65.87-10.32,69.38-10.26,5.32.3,6,2.55c.47,1.36-2.53,25-3,26.18s-2.53,4.21-5.59,4.78-30.75,4-35.11,4.88-4.13,3.87-4.17,6-.45,6.87-.45,6.87l22.11-2.81c3.6-.87,6.77,1,6.6,4.53s-3.52,23.49-3.52,23.49c-1.27,4.81-3.68,5.22-7.25,5.83-3.29.57-20.2,2.89-20.2,2.89-2.76.35-4.31,1.56-4.06,3.25-.16,3.8-.89,8.91-.89,8.91l35.7-4.77c5.65-.93,5.74,1.88,5.83,5s-.55,12.39-.55,12.39l-5.59.92,1-12.5c.22-1.12-1.09-1-2.11-.66s-34.1,5.19-34.1,5.19c-3.6.83-5.36-2.52-5.52-4.5s1.37-12.48,1.37-12.48c.68-3.16,2-4.91,4.35-5.17s22.86-3.17,22.86-3.17c3.44-.7,4.47-1.94,4.59-3.72S275,131.65,275,131.65l-24.19,2.81c-4.28,0-4.66-2.14-4.89-4S248,115.85,248,115.85a4.49,4.49,0,0,1,4.53-3.7c2.59-.19,38.33-5.52,38.33-5.52,1.12-.07,2.14-.74,2-3.07s2.81-20.77,2.81-20.77L225.45,93.54C221.81,93.22,221.07,90.22,224.49,88.47Z" transform="translate(-70.72 -40.85)"/>
    <path id="new_w1" class="cls-4" d="M289.72,187.47l5.94-1s15.19-96.62,15.19-100.22a2.65,2.65,0,0,0-5.23-.8C304.6,89.55,289.72,187.47,289.72,187.47Z" transform="translate(-70.72 -40.85)"/>
    <path id="new_w2" class="cls-4" d="M309.38,75.57s24.62-4.06,27.68-4,4.94,2,4.77,4.51-7,47-7,47,31.7-51.19,33.4-53.49,4.43-3.92,8.51-4.34,28.13-5.53,31.37-5.53,3.46,3.78,1.74,4.68c-2.64,1.19-34,5.61-34,5.61-2.81-.42-3.15,2-4.76,4.51s-37.54,60.17-37.54,60.17c-2.55,3.24-5.27.86-5.1-2.63s8-55.58,8-55.58l-26.64,3.66C304.81,79.17,307,76,309.38,75.57Z" transform="translate(-70.72 -40.85)"/>
    <path id="new_w3" class="cls-4" d="M404.43,71.3s-7.29,43.91-7.29,49c0,5.74,4,5,6,1.66s37.53-60,37.53-60a6.21,6.21,0,0,1,5.11-3.26c1.85-.12,27.06-4.27,27.06-4.27L401,170.11l7.59-1.15L479.49,54.45c1.75-4.09-1.31-6.29-5.84-5.72s-32,5.78-32,5.78c-3.43,1.29-4.4,2.36-6.83,5.75S404,110.62,404,110.62l5.39-39.42C409.09,68.17,405.67,68,404.43,71.3Z" transform="translate(-70.72 -40.85)"/>
    <path id="new_w4" class="cls-4" d="M332.3,180.79l6-.85,25.95-41.54-6.12,38.3,6.12-.85s6.77-36.76,6.7-47.87c0-4.68-4.29-2-5.08-1.15C361.57,131.51,332.3,180.79,332.3,180.79Z" transform="translate(-70.72 -40.85)"/>
  </g>
</svg>
